<svg width="55" height="45" viewBox="0 0 55 45" fill="none" xmlns="http://www.w3.org/2000/svg">
<path d="M52.4704 32.0838C52.6938 30.872 52.6938 29.6344 52.4704 28.4225L54.6878 27.1419C54.9456 26.9958 55.0574 26.695 54.9714 26.4114C54.3956 24.5549 53.4072 22.8704 52.118 21.478C51.9203 21.2632 51.6023 21.2116 51.3445 21.3577L49.1271 22.6383C48.1902 21.839 47.1159 21.2202 45.9556 20.8077V18.2465C45.9556 17.9542 45.7494 17.6964 45.4657 17.6362C43.5491 17.2065 41.5981 17.2237 39.7761 17.6362C39.4924 17.6964 39.2862 17.9542 39.2862 18.2465V20.8077C38.1259 21.2202 37.0516 21.839 36.1147 22.6383L33.8973 21.3577C33.6481 21.2116 33.3215 21.2632 33.1238 21.478C31.8346 22.8704 30.8462 24.5549 30.2704 26.4114C30.1844 26.695 30.3048 26.9958 30.554 27.1419L32.7714 28.4225C32.548 29.6344 32.548 30.872 32.7714 32.0838L30.554 33.3644C30.2962 33.5106 30.1844 33.8114 30.2704 34.095C30.8462 35.9514 31.8346 37.6274 33.1238 39.0283C33.3215 39.2432 33.6395 39.2948 33.8973 39.1486L36.1147 37.868C37.0516 38.6673 38.1259 39.2862 39.2862 39.6987V42.2599C39.2862 42.5521 39.4924 42.81 39.7761 42.8701C41.6927 43.2999 43.6437 43.2827 45.4657 42.8701C45.7494 42.81 45.9556 42.5521 45.9556 42.2599V39.6987C47.1159 39.2862 48.1902 38.6673 49.1271 37.868L51.3445 39.1486C51.5937 39.2948 51.9203 39.2432 52.118 39.0283C53.4072 37.636 54.3956 35.9514 54.9714 34.095C55.0574 33.8114 54.937 33.5106 54.6878 33.3644L52.4704 32.0838ZM42.6295 34.4216C40.3261 34.4216 38.4611 32.548 38.4611 30.2532C38.4611 27.9584 40.3347 26.0848 42.6295 26.0848C44.9243 26.0848 46.7979 27.9584 46.7979 30.2532C46.7979 32.548 44.9329 34.4216 42.6295 34.4216ZM19.252 22.0023C25.3285 22.0023 30.2532 17.0776 30.2532 11.0012C30.2532 4.92474 25.3285 0 19.252 0C13.1756 0 8.25087 4.92474 8.25087 11.0012C8.25087 17.0776 13.1756 22.0023 19.252 22.0023ZM36.5445 41.4692C36.3468 41.3661 36.1491 41.2457 35.96 41.134L35.2811 41.5294C34.7654 41.8216 34.181 41.9849 33.5965 41.9849C32.6597 41.9849 31.7573 41.5895 31.1127 40.902C29.5398 39.2002 28.3366 37.1289 27.6576 34.9201C27.1849 33.3988 27.8209 31.7916 29.1961 30.9923L29.875 30.597C29.8664 30.3735 29.8664 30.15 29.875 29.9266L29.1961 29.5312C27.8209 28.7405 27.1849 27.1247 27.6576 25.6035C27.735 25.3542 27.8467 25.105 27.9326 24.8557C27.606 24.83 27.288 24.7526 26.9528 24.7526H25.5175C23.6095 25.6293 21.4866 26.1277 19.252 26.1277C17.0174 26.1277 14.9031 25.6293 12.9865 24.7526H11.5512C5.17398 24.7526 0 29.9266 0 36.3038V39.8792C0 42.1568 1.84785 44.0046 4.12544 44.0046H34.3786C35.2467 44.0046 36.0546 43.7296 36.7164 43.2741C36.6132 42.9475 36.5445 42.6123 36.5445 42.2599V41.4692Z" fill="white"/>
</svg>
