<svg xmlns="http://www.w3.org/2000/svg" viewBox="0 0 1000 1000">
    <path d="M29.52 21.41c-6.51 3.25-11.49 8.02-14.53 13.66L10 43.74v373c0 360.85.22 373.21 4.12 382.1 2.82 6.07 6.94 10.62 13.66 14.31 245.91 139 299.04 168.71 304.9 169.8 10.19 2.17 25.16-4.34 32.53-13.88l5.86-7.59.65-71.13.65-71.13 144.64-.65c141.39-.65 144.86-.65 152.23-5.2 4.12-2.39 9.76-7.59 12.36-11.71l4.99-7.16V558.78h-67.22v190.84H372.15l-.43-272.8-.65-273.02-5.42-6.94c-3.9-4.99-31.44-21.9-93.25-56.82-48.36-27.54-89.34-50.74-91.08-51.83-1.95-1.3 83.71-2.17 217.51-2.17h220.54V331.08h67.22V41.14l-4.77-7.16c-2.82-3.9-7.8-9.32-11.06-11.71l-6.07-4.55-312.71-.65-312.71-.43-9.75 4.77z"/><path d="M765.31 292.91l-6.07 5.2-.65 49.01-.65 49.01h-91.51c-54.43 0-95.42 1.08-101.27 2.39-22.99 5.2-37.95 23.64-37.95 46.41.22 19.52 8.89 33.83 26.02 42.94 8.46 4.55 11.06 4.77 106.69 5.42l98.02.65.65 48.79.65 49.01 7.37 6.5c6.07 5.42 8.67 6.29 14.53 5.42 8.89-1.52 202.11-140.96 206.88-149.41 2.17-4.34 2.6-7.59 1.08-13.88-1.95-7.59-8.24-12.58-101.71-80.45-88.91-64.41-100.62-72.21-107.78-72.21-5.63 0-10.18 1.73-14.3 5.2z"/>
</svg>