<svg width="72" height="72" viewBox="0 0 72 72" fill="none" xmlns="http://www.w3.org/2000/svg">
<rect x="1.5" y="1.5" width="69" height="69" rx="34.5" fill="#159BE9" stroke="white" stroke-width="3"/>
<path d="M58.7029 27.5043L38.2182 21.2554C37.1019 20.9149 35.8975 20.9149 34.782 21.2554L14.2965 27.5043C12.5678 28.0315 12.5678 30.3014 14.2965 30.8286L17.8678 31.9179C17.0842 32.8797 16.6025 34.0529 16.5548 35.3377C15.8476 35.7402 15.3496 36.4664 15.3496 37.3334C15.3496 38.1194 15.7668 38.7808 16.3675 39.2037L14.4926 47.5803C14.3296 48.3088 14.8877 49 15.639 49H19.7596C20.5116 49 21.0697 48.3088 20.9067 47.5803L19.0318 39.2037C19.6325 38.7808 20.0497 38.1194 20.0497 37.3334C20.0497 36.4898 19.5745 35.7839 18.8996 35.3742C18.9554 34.279 19.5194 33.3106 20.4191 32.6967L34.7813 37.0782C35.4466 37.2809 36.723 37.5339 38.2174 37.0782L58.7029 30.8293C60.4324 30.3014 60.4324 28.0322 58.7029 27.5043ZM38.9078 39.3087C36.8126 39.9475 35.0273 39.5945 34.091 39.3087L23.441 36.0603L22.3997 44.3334C22.3997 46.911 28.7124 49 36.4997 49C44.2871 49 50.5998 46.911 50.5998 44.3334L49.5584 36.0596L38.9078 39.3087Z" fill="white"/>
</svg>
